<svg width="1080" height="1080" viewBox="0 0 1080 1080" fill="none" xmlns="http://www.w3.org/2000/svg">
    <rect width="1080" height="1080" rx="540" fill="#151B20" />
    <path
        d="M511.623 129.024L420.031 292.683C417.787 296.697 416.763 301.093 417.046 305.499C417.329 309.905 418.911 314.19 421.657 317.99C424.404 321.79 428.234 324.994 432.821 327.328C437.409 329.662 442.62 331.059 448.01 331.399C481.203 333.626 514.581 329.646 545.604 319.76C576.627 309.874 604.478 294.344 627.037 274.351C631.451 270.475 634.392 265.638 635.504 260.425C636.616 255.212 635.85 249.848 633.3 244.983C613.243 206.777 593.205 168.119 573.148 129.665C561.639 107.751 523.739 107.358 511.623 129.024Z"
        fill="#FFB956" />
    <path
        d="M678.295 396.706C680.773 401.454 681.57 406.679 680.596 411.782C679.622 416.885 676.916 421.659 672.789 425.555C637.578 459.161 592.497 484.816 541.824 500.085C491.152 515.355 436.57 519.733 383.26 512.802C378.16 512.151 373.315 510.537 369.102 508.088C364.89 505.639 361.426 502.421 358.982 498.687C356.538 494.953 355.181 490.804 355.017 486.567C354.853 482.329 355.887 478.118 358.037 474.264C376.901 440.352 395.747 406.444 414.575 372.542C417.384 367.409 422.052 363.113 427.943 360.241C433.833 357.368 440.659 356.058 447.489 356.49C500.085 360.195 552.525 348.053 595.025 322.33C599.083 319.878 603.765 318.212 608.719 317.459C613.673 316.705 618.77 316.882 623.628 317.977C628.487 319.072 632.98 321.057 636.772 323.782C640.564 326.507 643.556 329.901 645.524 333.712C656.477 354.802 667.401 375.801 678.295 396.706Z"
        fill="#FFB956" />
    <path
        d="M720.253 561.011C722.721 565.682 723.549 570.823 722.644 575.858C721.738 580.893 719.136 585.621 715.128 589.512C669.107 634.641 609.188 668.883 541.571 688.697C473.954 708.511 401.096 713.175 330.537 702.208C325.51 701.463 320.757 699.787 316.643 697.308C312.529 694.829 309.161 691.613 306.799 687.906C304.436 684.199 303.14 680.098 303.011 675.918C302.881 671.738 303.921 667.589 306.052 663.788L366.642 555.2C369.566 549.986 374.41 545.652 380.496 542.805C386.581 539.958 393.603 538.741 400.576 539.325C441.982 542.771 483.812 539.487 523.664 529.663C563.515 519.838 600.601 503.665 632.793 482.074C636.821 479.412 641.55 477.552 646.607 476.64C651.663 475.729 656.909 475.791 661.931 476.822C666.953 477.853 671.614 479.824 675.547 482.58C679.479 485.337 682.576 488.803 684.593 492.706C696.479 515.494 708.366 538.262 720.253 561.011Z"
        fill="#FFB956" />
    <path
        d="M775.608 773.071C777.251 776.442 778.062 780.046 777.996 783.675C777.93 787.305 776.987 790.887 775.222 794.217C773.458 797.546 770.906 800.556 767.714 803.073C764.522 805.591 760.753 807.565 756.625 808.883C618.305 852.968 464.854 853.041 326.471 809.088C322.204 807.738 318.318 805.687 315.053 803.062C311.789 800.437 309.213 797.293 307.486 793.823C305.758 790.352 304.914 786.629 305.007 782.882C305.099 779.135 306.126 775.443 308.023 772.033L322.297 746.248C325.239 740.946 330.161 736.547 336.354 733.686C342.546 730.825 349.688 729.65 356.748 730.33C412.45 735.906 468.96 731.877 522.649 718.503C576.338 705.129 626.021 682.704 668.507 652.669C672.546 649.819 677.356 647.797 682.538 646.771C687.72 645.744 693.126 645.743 698.308 646.767C703.491 647.791 708.302 649.811 712.343 652.66C716.384 655.508 719.54 659.104 721.549 663.15C739.759 699.732 757.779 736.372 775.608 773.071Z"
        fill="#FFB956" />
    <path
        d="M581 875.973V953.998C581 957.712 579.774 961.273 577.592 963.899C575.41 966.525 572.45 968 569.364 968H512.636C509.55 968 506.59 966.525 504.408 963.899C502.226 961.273 501 957.712 501 953.998V875.92C500.997 874.025 501.317 872.15 501.938 870.409C502.56 868.669 503.471 867.099 504.616 865.798C505.76 864.496 507.113 863.49 508.593 862.841C510.072 862.192 511.646 861.914 513.218 862.023C523.836 862.758 534.775 863.108 546.033 862.986C553.79 862.904 561.383 862.601 568.811 862.076C570.381 861.971 571.951 862.253 573.427 862.904C574.903 863.555 576.253 864.562 577.394 865.864C578.535 867.165 579.444 868.732 580.064 870.47C580.684 872.209 581.002 874.081 581 875.973Z"
        fill="#FFB956" />
</svg>